<mxfile host="Electron" modified="2024-07-17T21:59:10.415Z" agent="Mozilla/5.0 (X11; Linux x86_64) AppleWebKit/537.36 (KHTML, like Gecko) draw.io/24.5.3 Chrome/124.0.6367.207 Electron/30.0.6 Safari/537.36" etag="9itXvp_KtLeCcMTvSBdE" version="24.5.3" type="device">
  <diagram name="Page-1" id="W_DVdPMOir-uvhRmiZk6">
    <mxGraphModel dx="1434" dy="969" grid="1" gridSize="10" guides="1" tooltips="1" connect="1" arrows="1" fold="1" page="1" pageScale="1" pageWidth="850" pageHeight="1100" math="0" shadow="0">
      <root>
        <mxCell id="0" />
        <mxCell id="1" parent="0" />
        <mxCell id="1XIJd5jqnsslgkVnj5lK-1" value="REST API" style="ellipse;whiteSpace=wrap;html=1;fillColor=#d5e8d4;strokeColor=#82b366;" parent="1" vertex="1">
          <mxGeometry x="277" y="170" width="120" height="80" as="geometry" />
        </mxCell>
        <mxCell id="1XIJd5jqnsslgkVnj5lK-11" style="edgeStyle=orthogonalEdgeStyle;rounded=0;orthogonalLoop=1;jettySize=auto;html=1;exitX=0.5;exitY=0;exitDx=0;exitDy=0;entryX=1;entryY=0.5;entryDx=0;entryDy=0;" parent="1" source="1XIJd5jqnsslgkVnj5lK-2" target="1XIJd5jqnsslgkVnj5lK-1" edge="1">
          <mxGeometry relative="1" as="geometry" />
        </mxCell>
        <mxCell id="1XIJd5jqnsslgkVnj5lK-2" value="Client Communication" style="ellipse;whiteSpace=wrap;html=1;" parent="1" vertex="1">
          <mxGeometry x="497" y="260" width="110" height="80" as="geometry" />
        </mxCell>
        <mxCell id="1XIJd5jqnsslgkVnj5lK-12" style="edgeStyle=orthogonalEdgeStyle;rounded=0;orthogonalLoop=1;jettySize=auto;html=1;exitX=0.5;exitY=0;exitDx=0;exitDy=0;entryX=0;entryY=0.5;entryDx=0;entryDy=0;" parent="1" source="1XIJd5jqnsslgkVnj5lK-3" target="1XIJd5jqnsslgkVnj5lK-2" edge="1">
          <mxGeometry relative="1" as="geometry" />
        </mxCell>
        <mxCell id="1XIJd5jqnsslgkVnj5lK-3" value="HTTP Response" style="ellipse;whiteSpace=wrap;html=1;" parent="1" vertex="1">
          <mxGeometry x="297" y="370" width="110" height="80" as="geometry" />
        </mxCell>
        <mxCell id="1XIJd5jqnsslgkVnj5lK-13" style="edgeStyle=orthogonalEdgeStyle;rounded=0;orthogonalLoop=1;jettySize=auto;html=1;exitX=0.5;exitY=0;exitDx=0;exitDy=0;entryX=0;entryY=1;entryDx=0;entryDy=0;" parent="1" source="1XIJd5jqnsslgkVnj5lK-4" target="1XIJd5jqnsslgkVnj5lK-2" edge="1">
          <mxGeometry relative="1" as="geometry" />
        </mxCell>
        <mxCell id="1XIJd5jqnsslgkVnj5lK-4" value="HTTP Request" style="ellipse;whiteSpace=wrap;html=1;" parent="1" vertex="1">
          <mxGeometry x="427" y="370" width="110" height="80" as="geometry" />
        </mxCell>
        <mxCell id="1XIJd5jqnsslgkVnj5lK-14" style="edgeStyle=orthogonalEdgeStyle;rounded=0;orthogonalLoop=1;jettySize=auto;html=1;exitX=0.5;exitY=0;exitDx=0;exitDy=0;entryX=1;entryY=1;entryDx=0;entryDy=0;" parent="1" source="1XIJd5jqnsslgkVnj5lK-5" target="1XIJd5jqnsslgkVnj5lK-2" edge="1">
          <mxGeometry relative="1" as="geometry" />
        </mxCell>
        <mxCell id="1XIJd5jqnsslgkVnj5lK-5" value="HTTP Verbs" style="ellipse;whiteSpace=wrap;html=1;" parent="1" vertex="1">
          <mxGeometry x="557" y="370" width="110" height="80" as="geometry" />
        </mxCell>
        <mxCell id="1XIJd5jqnsslgkVnj5lK-15" style="edgeStyle=orthogonalEdgeStyle;rounded=0;orthogonalLoop=1;jettySize=auto;html=1;entryX=1;entryY=0.5;entryDx=0;entryDy=0;" parent="1" source="1XIJd5jqnsslgkVnj5lK-6" target="1XIJd5jqnsslgkVnj5lK-2" edge="1">
          <mxGeometry relative="1" as="geometry">
            <Array as="points">
              <mxPoint x="742" y="300" />
            </Array>
          </mxGeometry>
        </mxCell>
        <mxCell id="1XIJd5jqnsslgkVnj5lK-6" value="HTTP Headers" style="ellipse;whiteSpace=wrap;html=1;" parent="1" vertex="1">
          <mxGeometry x="687" y="370" width="110" height="80" as="geometry" />
        </mxCell>
        <mxCell id="1XIJd5jqnsslgkVnj5lK-10" style="edgeStyle=orthogonalEdgeStyle;rounded=0;orthogonalLoop=1;jettySize=auto;html=1;exitX=0.5;exitY=0;exitDx=0;exitDy=0;entryX=0;entryY=0.5;entryDx=0;entryDy=0;" parent="1" source="1XIJd5jqnsslgkVnj5lK-7" target="1XIJd5jqnsslgkVnj5lK-1" edge="1">
          <mxGeometry relative="1" as="geometry">
            <mxPoint x="227" y="190" as="targetPoint" />
          </mxGeometry>
        </mxCell>
        <mxCell id="1XIJd5jqnsslgkVnj5lK-7" value="API Compatibility" style="ellipse;whiteSpace=wrap;html=1;" parent="1" vertex="1">
          <mxGeometry x="110" y="260" width="110" height="80" as="geometry" />
        </mxCell>
        <mxCell id="1XIJd5jqnsslgkVnj5lK-17" style="edgeStyle=orthogonalEdgeStyle;rounded=0;orthogonalLoop=1;jettySize=auto;html=1;exitX=0.5;exitY=0;exitDx=0;exitDy=0;entryX=1;entryY=1;entryDx=0;entryDy=0;" parent="1" source="1XIJd5jqnsslgkVnj5lK-8" target="1XIJd5jqnsslgkVnj5lK-7" edge="1">
          <mxGeometry relative="1" as="geometry" />
        </mxCell>
        <mxCell id="1XIJd5jqnsslgkVnj5lK-8" value="API Versioning" style="ellipse;whiteSpace=wrap;html=1;" parent="1" vertex="1">
          <mxGeometry x="170" y="370" width="110" height="80" as="geometry" />
        </mxCell>
        <mxCell id="1XIJd5jqnsslgkVnj5lK-16" style="edgeStyle=orthogonalEdgeStyle;rounded=0;orthogonalLoop=1;jettySize=auto;html=1;exitX=0.5;exitY=0;exitDx=0;exitDy=0;entryX=0;entryY=1;entryDx=0;entryDy=0;" parent="1" source="1XIJd5jqnsslgkVnj5lK-9" target="1XIJd5jqnsslgkVnj5lK-7" edge="1">
          <mxGeometry relative="1" as="geometry" />
        </mxCell>
        <mxCell id="1XIJd5jqnsslgkVnj5lK-9" value="API Migration" style="ellipse;whiteSpace=wrap;html=1;" parent="1" vertex="1">
          <mxGeometry x="30" y="370" width="110" height="80" as="geometry" />
        </mxCell>
        <mxCell id="U0yIJ4Tdos49neY1ZDmv-8" style="edgeStyle=orthogonalEdgeStyle;rounded=0;orthogonalLoop=1;jettySize=auto;html=1;entryX=0;entryY=1;entryDx=0;entryDy=0;" parent="1" source="U0yIJ4Tdos49neY1ZDmv-1" target="1XIJd5jqnsslgkVnj5lK-4" edge="1">
          <mxGeometry relative="1" as="geometry">
            <Array as="points">
              <mxPoint x="352" y="460" />
              <mxPoint x="443" y="460" />
            </Array>
          </mxGeometry>
        </mxCell>
        <mxCell id="U0yIJ4Tdos49neY1ZDmv-1" value="HTTP Request&lt;div&gt;Subdomain&lt;/div&gt;" style="ellipse;whiteSpace=wrap;html=1;" parent="1" vertex="1">
          <mxGeometry x="297" y="480" width="110" height="80" as="geometry" />
        </mxCell>
        <mxCell id="U0yIJ4Tdos49neY1ZDmv-7" style="edgeStyle=orthogonalEdgeStyle;rounded=0;orthogonalLoop=1;jettySize=auto;html=1;exitX=0.5;exitY=0;exitDx=0;exitDy=0;entryX=0.5;entryY=1;entryDx=0;entryDy=0;" parent="1" source="U0yIJ4Tdos49neY1ZDmv-4" target="1XIJd5jqnsslgkVnj5lK-4" edge="1">
          <mxGeometry relative="1" as="geometry" />
        </mxCell>
        <mxCell id="U0yIJ4Tdos49neY1ZDmv-4" value="HTTP Request&lt;div&gt;Path&lt;/div&gt;" style="ellipse;whiteSpace=wrap;html=1;" parent="1" vertex="1">
          <mxGeometry x="427" y="480" width="110" height="80" as="geometry" />
        </mxCell>
        <mxCell id="U0yIJ4Tdos49neY1ZDmv-6" style="edgeStyle=orthogonalEdgeStyle;rounded=0;orthogonalLoop=1;jettySize=auto;html=1;entryX=1;entryY=1;entryDx=0;entryDy=0;" parent="1" source="U0yIJ4Tdos49neY1ZDmv-5" target="1XIJd5jqnsslgkVnj5lK-4" edge="1">
          <mxGeometry relative="1" as="geometry">
            <Array as="points">
              <mxPoint x="612" y="460" />
              <mxPoint x="521" y="460" />
            </Array>
          </mxGeometry>
        </mxCell>
        <mxCell id="U0yIJ4Tdos49neY1ZDmv-5" value="HTTP Request&lt;div&gt;Parameters&lt;/div&gt;" style="ellipse;whiteSpace=wrap;html=1;" parent="1" vertex="1">
          <mxGeometry x="557" y="480" width="110" height="80" as="geometry" />
        </mxCell>
        <mxCell id="zad8mA6hlos0SojuvQlj-2" style="edgeStyle=orthogonalEdgeStyle;rounded=0;orthogonalLoop=1;jettySize=auto;html=1;entryX=0;entryY=1;entryDx=0;entryDy=0;exitX=0.5;exitY=0;exitDx=0;exitDy=0;" parent="1" source="zad8mA6hlos0SojuvQlj-1" target="1XIJd5jqnsslgkVnj5lK-3" edge="1">
          <mxGeometry relative="1" as="geometry">
            <Array as="points">
              <mxPoint x="225" y="460" />
              <mxPoint x="313" y="460" />
            </Array>
          </mxGeometry>
        </mxCell>
        <mxCell id="zad8mA6hlos0SojuvQlj-1" value="Hypermedia" style="ellipse;whiteSpace=wrap;html=1;" parent="1" vertex="1">
          <mxGeometry x="170" y="480" width="110" height="80" as="geometry" />
        </mxCell>
        <mxCell id="zad8mA6hlos0SojuvQlj-5" style="edgeStyle=orthogonalEdgeStyle;rounded=0;orthogonalLoop=1;jettySize=auto;html=1;entryX=0;entryY=1;entryDx=0;entryDy=0;" parent="1" source="zad8mA6hlos0SojuvQlj-3" target="zad8mA6hlos0SojuvQlj-1" edge="1">
          <mxGeometry relative="1" as="geometry">
            <Array as="points">
              <mxPoint x="165" y="570" />
              <mxPoint x="186" y="570" />
            </Array>
          </mxGeometry>
        </mxCell>
        <mxCell id="zad8mA6hlos0SojuvQlj-3" value="Data entity link" style="ellipse;whiteSpace=wrap;html=1;" parent="1" vertex="1">
          <mxGeometry x="110" y="580" width="110" height="80" as="geometry" />
        </mxCell>
        <mxCell id="zad8mA6hlos0SojuvQlj-6" style="edgeStyle=orthogonalEdgeStyle;rounded=0;orthogonalLoop=1;jettySize=auto;html=1;exitX=0.5;exitY=0;exitDx=0;exitDy=0;entryX=1;entryY=1;entryDx=0;entryDy=0;" parent="1" source="zad8mA6hlos0SojuvQlj-4" target="zad8mA6hlos0SojuvQlj-1" edge="1">
          <mxGeometry relative="1" as="geometry">
            <Array as="points">
              <mxPoint x="305" y="570" />
              <mxPoint x="264" y="570" />
            </Array>
          </mxGeometry>
        </mxCell>
        <mxCell id="zad8mA6hlos0SojuvQlj-4" value="HATEOAS" style="ellipse;whiteSpace=wrap;html=1;" parent="1" vertex="1">
          <mxGeometry x="250" y="580" width="110" height="80" as="geometry" />
        </mxCell>
        <mxCell id="FINELZGGdNeHAkDgq9X0-2" value="" style="rounded=0;whiteSpace=wrap;html=1;fillColor=#d5e8d4;strokeColor=#82b366;" vertex="1" parent="1">
          <mxGeometry x="567" y="604.5" width="10" height="10" as="geometry" />
        </mxCell>
        <mxCell id="FINELZGGdNeHAkDgq9X0-4" value="Subtheme" style="text;html=1;align=center;verticalAlign=middle;whiteSpace=wrap;rounded=0;" vertex="1" parent="1">
          <mxGeometry x="585" y="600" width="50" height="19" as="geometry" />
        </mxCell>
        <mxCell id="FINELZGGdNeHAkDgq9X0-5" value="" style="rounded=0;whiteSpace=wrap;html=1;" vertex="1" parent="1">
          <mxGeometry x="567" y="622.5" width="10" height="10" as="geometry" />
        </mxCell>
        <mxCell id="FINELZGGdNeHAkDgq9X0-6" value="Category" style="text;html=1;align=center;verticalAlign=middle;whiteSpace=wrap;rounded=0;" vertex="1" parent="1">
          <mxGeometry x="583" y="618" width="50" height="19" as="geometry" />
        </mxCell>
      </root>
    </mxGraphModel>
  </diagram>
</mxfile>
